<svg width="30" height="30" viewBox="0 0 30 30" fill="none" xmlns="http://www.w3.org/2000/svg">
<path d="M6.71843 3.78226H4.71694C4.56133 3.78226 4.43497 3.65615 4.43497 3.50029C4.43497 3.34444 4.56108 3.21832 4.71694 3.21832H6.71843C6.87404 3.21832 7.00041 3.34444 7.00041 3.50029C7.00041 3.65615 6.87429 3.78226 6.71843 3.78226Z" fill="#FFA000"/>
<path d="M3.50008 2.56517C3.34447 2.56517 3.21811 2.43906 3.21811 2.2832V0.281963C3.21811 0.126105 3.34422 0 3.50008 0C3.65568 0 3.78204 0.126105 3.78204 0.281963V2.2832C3.78204 2.43906 3.65593 2.56517 3.50008 2.56517Z" fill="#FFA000"/>
<path d="M3.50008 7.00092C3.34447 7.00092 3.21811 6.8748 3.21811 6.71895V4.71745C3.21811 4.56159 3.34422 4.43549 3.50008 4.43549C3.65568 4.43549 3.78204 4.56159 3.78204 4.71745V6.71895C3.78204 6.8748 3.65593 7.00092 3.50008 7.00092Z" fill="#FFA000"/>
<path d="M2.28321 3.78226H0.281971C0.126367 3.78226 0 3.65615 0 3.50029C0 3.34444 0.126113 3.21832 0.281971 3.21832H2.28321C2.43882 3.21832 2.56518 3.34444 2.56518 3.50029C2.56518 3.65615 2.43882 3.78226 2.28321 3.78226Z" fill="#FFA000"/>
<path d="M3.50003 4.14961C3.14204 4.14961 2.85092 3.85849 2.85092 3.50025C2.85092 3.14251 3.14204 2.85114 3.50003 2.85114C3.85802 2.85114 4.1494 3.14251 4.1494 3.50025C4.1494 3.85849 3.85802 4.14961 3.50003 4.14961ZM3.50003 3.41482C3.453 3.41482 3.4146 3.45296 3.4146 3.50025C3.4146 3.54729 3.453 3.58594 3.50003 3.58594C3.54707 3.58594 3.58546 3.54729 3.58546 3.50025C3.58572 3.45321 3.54732 3.41482 3.50003 3.41482Z" fill="#FFA000"/>
<path d="M2.63967 2.92161C2.56747 2.92161 2.49551 2.89415 2.44034 2.83897L1.73275 2.13139C1.62265 2.02129 1.62265 1.84281 1.73275 1.73272C1.84284 1.62262 2.02133 1.62262 2.13142 1.73272L2.83901 2.44005C2.9491 2.55014 2.9491 2.72863 2.83901 2.83872C2.78384 2.89415 2.71188 2.92161 2.63967 2.92161Z" fill="#FFA000"/>
<path d="M4.3607 2.92136C4.28849 2.92136 4.21654 2.8939 4.16137 2.83873C4.05127 2.72863 4.05127 2.55015 4.16137 2.44006L4.86871 1.73272C4.9788 1.62262 5.15728 1.62262 5.26738 1.73272C5.37747 1.84281 5.37747 2.0213 5.26738 2.13139L4.55979 2.83898C4.50512 2.8939 4.43291 2.92136 4.3607 2.92136Z" fill="#FFA000"/>
<path d="M5.06822 5.35063C4.99602 5.35063 4.92405 5.32317 4.86888 5.268L4.16155 4.56041C4.05146 4.45032 4.05146 4.27182 4.16155 4.16173C4.27164 4.05164 4.45013 4.05164 4.56022 4.16173L5.26781 4.86933C5.3779 4.97942 5.3779 5.15791 5.26781 5.268C5.21238 5.32292 5.14043 5.35063 5.06822 5.35063Z" fill="#FFA000"/>
<path d="M1.93209 5.35063C1.85988 5.35063 1.78792 5.32317 1.73275 5.268C1.62265 5.15791 1.62265 4.97942 1.73275 4.86933L2.44034 4.16173C2.55043 4.05164 2.72892 4.05164 2.83901 4.16173C2.9491 4.27182 2.9491 4.45032 2.83901 4.56041L2.13142 5.268C2.07625 5.32292 2.00429 5.35063 1.93209 5.35063Z" fill="#FFA000"/>
<path d="M27.6508 10.76C27.5786 10.76 27.5066 10.7326 27.4514 10.6774L26.9638 10.19C26.8537 10.0799 26.8537 9.9014 26.9638 9.79131C27.0739 9.68122 27.2523 9.68122 27.3624 9.79131L27.8501 10.2787C27.9602 10.3888 27.9602 10.5673 27.8501 10.6774C27.7952 10.7326 27.723 10.76 27.6508 10.76Z" fill="#F06292"/>
<path d="M28.837 10.7598C28.7648 10.7598 28.6929 10.7323 28.6377 10.6771C28.5276 10.5671 28.5276 10.3886 28.6377 10.2785L29.1251 9.79107C29.2352 9.68097 29.4137 9.68097 29.5238 9.79107C29.6339 9.90116 29.6339 10.0797 29.5238 10.1897L29.0364 10.6771C28.9812 10.7323 28.9092 10.7598 28.837 10.7598Z" fill="#F06292"/>
<path d="M29.3244 12.4338C29.2522 12.4338 29.1803 12.4063 29.1251 12.3512L28.6377 11.8637C28.5276 11.7537 28.5276 11.5752 28.6377 11.4651C28.7478 11.355 28.9263 11.355 29.0364 11.4651L29.5238 11.9525C29.6339 12.0626 29.6339 12.2411 29.5238 12.3512C29.4688 12.4063 29.3966 12.4338 29.3244 12.4338Z" fill="#F06292"/>
<path d="M27.1632 12.4338C27.091 12.4338 27.019 12.4063 26.9639 12.3512C26.8538 12.2411 26.8538 12.0626 26.9639 11.9525L27.4515 11.4651C27.5616 11.355 27.7401 11.355 27.8502 11.4651C27.9603 11.5752 27.9603 11.7537 27.8502 11.8637L27.3625 12.3512C27.3076 12.4063 27.2354 12.4338 27.1632 12.4338Z" fill="#F06292"/>
<path d="M2.28292 28.3259C2.21071 28.3259 2.13876 28.2985 2.08359 28.2433L1.59618 27.7559C1.48609 27.6458 1.48609 27.4673 1.59618 27.3572C1.70627 27.2471 1.88476 27.2471 1.99485 27.3572L2.48226 27.8446C2.59235 27.9547 2.59235 28.1332 2.48226 28.2433C2.42708 28.2985 2.35513 28.3259 2.28292 28.3259Z" fill="#FFA000"/>
<path d="M3.46919 28.3259C3.39698 28.3259 3.32503 28.2985 3.26986 28.2433C3.15976 28.1332 3.15976 27.9547 3.26986 27.8446L3.75726 27.3572C3.86735 27.2471 4.04584 27.2471 4.15593 27.3572C4.26603 27.4673 4.26603 27.6458 4.15593 27.7559L3.66853 28.2433C3.61335 28.2985 3.54114 28.3259 3.46919 28.3259Z" fill="#FFA000"/>
<path d="M3.9566 29.9999C3.88439 29.9999 3.81243 29.9725 3.75726 29.9173L3.26986 29.4299C3.15976 29.3198 3.15976 29.1413 3.26986 29.0312C3.37995 28.9211 3.55843 28.9211 3.66853 29.0312L4.15593 29.5189C4.26603 29.629 4.26603 29.8075 4.15593 29.9176C4.10076 29.9722 4.02881 29.9999 3.9566 29.9999Z" fill="#FFA000"/>
<path d="M1.79534 29.9998C1.72313 29.9998 1.65117 29.9724 1.596 29.9172C1.4859 29.8071 1.4859 29.6286 1.596 29.5185L2.08341 29.0309C2.1935 28.9208 2.37198 28.9208 2.48208 29.0309C2.59217 29.141 2.59217 29.3194 2.48208 29.4295L1.99467 29.9169C1.93975 29.9721 1.86754 29.9998 1.79534 29.9998Z" fill="#FFA000"/>
<path d="M22.9864 2.3285C22.9141 2.3285 22.8422 2.30104 22.787 2.24587L22.2996 1.75846C22.1895 1.64837 22.1895 1.46988 22.2996 1.35979C22.4097 1.2497 22.5882 1.2497 22.6983 1.35979L23.1859 1.84745C23.296 1.95754 23.296 2.13603 23.1859 2.24612C23.1308 2.30104 23.0586 2.3285 22.9864 2.3285Z" fill="#FFA000"/>
<path d="M24.1725 2.32864C24.1003 2.32864 24.0284 2.30117 23.9732 2.246C23.8631 2.13591 23.8631 1.95742 23.9732 1.84733L24.4606 1.35967C24.5707 1.24958 24.7492 1.24958 24.8593 1.35967C24.9694 1.46976 24.9694 1.64825 24.8593 1.75834L24.3719 2.24575C24.3167 2.30118 24.2447 2.32864 24.1725 2.32864Z" fill="#FFA000"/>
<path d="M24.6599 4.00191C24.5877 4.00191 24.5158 3.97445 24.4606 3.91928L23.9732 3.43162C23.8631 3.32153 23.8631 3.14304 23.9732 3.03295C24.0833 2.92286 24.2618 2.92286 24.3719 3.03295L24.8593 3.52035C24.9694 3.63044 24.9694 3.80893 24.8593 3.91902C24.8044 3.9742 24.7321 4.00191 24.6599 4.00191Z" fill="#FFA000"/>
<path d="M22.4991 4.00202C22.4269 4.00202 22.3549 3.97456 22.2997 3.91939C22.1896 3.8093 22.1896 3.63081 22.2997 3.52072L22.7871 3.03331C22.8972 2.92322 23.0757 2.92322 23.1858 3.03331C23.2959 3.14341 23.2959 3.32189 23.1858 3.43198L22.6982 3.91964C22.6432 3.97431 22.5713 4.00202 22.4991 4.00202Z" fill="#FFA000"/>
<path d="M26.2406 26.3289H4.59005C3.87026 26.3289 3.28674 25.7453 3.28674 25.0255V20.3564C3.28674 19.6366 3.87026 19.0531 4.59005 19.0531H26.2406C26.9604 19.0531 27.5439 19.6366 27.5439 20.3564V25.0255C27.5437 25.7453 26.9601 26.3289 26.2406 26.3289Z" fill="#FFCA28"/>
<path d="M26.1789 19.0535H4.6514C3.89753 19.0535 3.28656 19.6644 3.28656 20.4183V21.1106C3.28656 21.6924 3.7582 22.164 4.33994 22.164C4.69132 22.164 5.00049 21.9901 5.19195 21.7257C5.3834 21.9901 5.69257 22.164 6.04395 22.164C6.39533 22.164 6.70451 21.9901 6.89596 21.7257C7.08742 21.9901 7.39659 22.164 7.74797 22.164C8.09935 22.164 8.40852 21.9901 8.59998 21.7257C8.79143 21.9901 9.10035 22.164 9.45199 22.164C9.80337 22.164 10.1125 21.9901 10.304 21.7257C10.4954 21.9901 10.8046 22.164 11.156 22.164C11.5074 22.164 11.8166 21.9901 12.008 21.7257C12.1995 21.9901 12.5086 22.164 12.86 22.164C13.2114 22.164 13.5206 21.9901 13.712 21.7257C13.9035 21.9901 14.2127 22.164 14.564 22.164C14.9154 22.164 15.2246 21.9904 15.416 21.7257C15.6075 21.9901 15.9167 22.164 16.268 22.164C16.6194 22.164 16.9286 21.9904 17.1201 21.7257C17.3115 21.9901 17.6207 22.164 17.9721 22.164C18.3234 22.164 18.6326 21.9904 18.8241 21.7257C19.0155 21.9901 19.3247 22.164 19.6761 22.164C20.0275 22.164 20.3366 21.9904 20.5281 21.7257C20.7195 21.9901 21.0287 22.164 21.3801 22.164C21.7315 22.164 22.0406 21.9904 22.2321 21.7257C22.4236 21.9901 22.7327 22.164 23.0841 22.164C23.4355 22.164 23.7447 21.9904 23.9361 21.7257C24.1276 21.9901 24.4365 22.164 24.7881 22.164C25.1398 22.164 25.4487 21.9901 25.6401 21.7257C25.8316 21.9901 26.1408 22.164 26.4921 22.164C27.0741 22.164 27.5458 21.6924 27.5458 21.1106V20.4183C27.5437 19.6644 26.9328 19.0535 26.1789 19.0535Z" fill="#E53935"/>
<path d="M21.8476 4.50195H8.98282C8.22896 4.50195 7.61798 5.11292 7.61798 5.86679V11.7777H23.2122V5.86679C23.2124 5.11318 22.6012 4.50195 21.8476 4.50195Z" fill="#FFCA28"/>
<path d="M24.0131 11.7781H6.81711C6.06325 11.7781 5.45227 12.389 5.45227 13.1429V19.0538H25.378V13.1429C25.378 12.389 24.767 11.7781 24.0131 11.7781Z" fill="#FFCA28"/>
<path opacity="0.62" d="M27.5331 20.2614H3.29706C3.37435 19.5798 3.94948 19.0524 4.65249 19.0524H26.178C26.8782 19.0524 27.4561 19.5798 27.5331 20.2614Z" fill="#F3F1EC"/>
<path opacity="0.2" d="M27.5439 24.7001V24.9637C27.5439 25.7174 26.9314 26.3296 26.1781 26.3296H4.6526C3.89645 26.3296 3.28674 25.7171 3.28674 24.9637V24.7001H27.5439Z" fill="#EF6C00"/>
<path d="M24.0131 11.7781H6.81711C6.06325 11.7781 5.45227 12.389 5.45227 13.1429V13.8353C5.45227 14.4172 5.92392 14.8889 6.50591 14.8889C6.88246 14.8889 7.2107 14.6895 7.39681 14.3923C7.58318 14.6895 7.91117 14.8889 8.28772 14.8889C8.66427 14.8889 8.99252 14.6895 9.17863 14.3923C9.365 14.6895 9.69299 14.8889 10.0695 14.8889C10.4461 14.8889 10.7741 14.6895 10.9604 14.3923C11.1468 14.6895 11.4748 14.8889 11.8514 14.8889C12.2279 14.8889 12.5559 14.6895 12.7423 14.3923C12.9286 14.6895 13.2566 14.8889 13.6332 14.8889C14.0097 14.8889 14.338 14.6895 14.5241 14.3923C14.7104 14.6895 15.0384 14.8889 15.415 14.8889C15.7915 14.8889 16.1195 14.6895 16.3059 14.3923C16.4923 14.6895 16.8203 14.8889 17.1968 14.8889C17.5734 14.8889 17.9014 14.6895 18.0877 14.3923C18.2741 14.6895 18.6021 14.8889 18.9786 14.8889C19.3552 14.8889 19.6834 14.6895 19.8695 14.3923C20.0559 14.6895 20.3839 14.8889 20.7604 14.8889C21.137 14.8889 21.4652 14.6895 21.6514 14.3923C21.8377 14.6895 22.1657 14.8889 22.5423 14.8889C22.9188 14.8889 23.2471 14.6895 23.4332 14.3923C23.6195 14.6895 23.9475 14.8889 24.3241 14.8889C24.9058 14.8889 25.3777 14.4172 25.3777 13.8353V13.1429C25.378 12.389 24.767 11.7781 24.0131 11.7781Z" fill="#E53935"/>
<path opacity="0.62" d="M25.3686 12.9868H5.46222C5.53672 12.3077 6.11464 11.7781 6.81765 11.7781H24.0132C24.7162 11.7781 25.2941 12.3079 25.3686 12.9868Z" fill="#F3F1EC"/>
<path opacity="0.2" d="M25.3791 17.4257H5.45139V19.0527H25.3791V17.4257Z" fill="#EF6C00"/>
<path d="M21.8476 4.50195H8.98282C8.22896 4.50195 7.61798 5.11292 7.61798 5.86679V6.55913C7.61798 7.14086 8.08962 7.61276 8.67136 7.61276C9.10181 7.61276 9.47073 7.35367 9.63422 6.98399C9.79771 7.35393 10.1666 7.61276 10.5971 7.61276C11.0275 7.61276 11.3965 7.35367 11.5599 6.98399C11.7234 7.35393 12.0924 7.61276 12.5228 7.61276C12.9533 7.61276 13.3222 7.35393 13.4857 6.98399C13.6492 7.35393 14.0181 7.61276 14.4485 7.61276C14.879 7.61276 15.2479 7.35367 15.4114 6.98399C15.5749 7.35393 15.9438 7.61276 16.3743 7.61276C16.8047 7.61276 17.1736 7.35367 17.3371 6.98399C17.5006 7.35393 17.8695 7.61276 18.3 7.61276C18.7304 7.61276 19.0994 7.35367 19.2628 6.98399C19.4263 7.35393 19.7953 7.61276 20.2257 7.61276C20.6562 7.61276 21.0251 7.35367 21.1886 6.98399C21.3521 7.35393 21.721 7.61276 22.1514 7.61276C22.7332 7.61276 23.2051 7.14112 23.2051 6.55913H23.2127V5.86679C23.2124 5.11318 22.6012 4.50195 21.8476 4.50195Z" fill="#E53935"/>
<path opacity="0.62" d="M23.2011 5.70984H7.62955C7.70404 5.03072 8.28196 4.50085 8.98218 4.50085H21.8485C22.549 4.50085 23.1266 5.03072 23.2011 5.70984Z" fill="#F3F1EC"/>
<path opacity="0.2" d="M23.212 10.1485H7.61908V11.778H23.212V10.1485Z" fill="#EF6C00"/>
</svg>
