<svg width="17" height="17" viewBox="0 0 17 17" fill="none" xmlns="http://www.w3.org/2000/svg">
<path d="M11.6015 3.31197V2.27197C11.6015 1.99864 11.3748 1.77197 11.1015 1.77197C10.8281 1.77197 10.6015 1.99864 10.6015 2.27197V3.27197H6.26814V2.27197C6.26814 1.99864 6.04147 1.77197 5.76814 1.77197C5.4948 1.77197 5.26814 1.99864 5.26814 2.27197V3.31197C3.46814 3.47864 2.5948 4.55197 2.46147 6.14531C2.44814 6.33864 2.60814 6.49864 2.7948 6.49864H14.0748C14.2681 6.49864 14.4281 6.33197 14.4081 6.14531C14.2748 4.55197 13.4015 3.47864 11.6015 3.31197Z" fill="#798899"/>
<path d="M13.7681 7.49854H3.10148C2.73481 7.49854 2.43481 7.79854 2.43481 8.1652V12.2719C2.43481 14.2719 3.43481 15.6052 5.76815 15.6052H11.1015C13.4348 15.6052 14.4348 14.2719 14.4348 12.2719V8.1652C14.4348 7.79854 14.1348 7.49854 13.7681 7.49854ZM6.57481 13.0785C6.50815 13.1385 6.43481 13.1852 6.35481 13.2185C6.27481 13.2519 6.18815 13.2719 6.10148 13.2719C6.01481 13.2719 5.92815 13.2519 5.84815 13.2185C5.76815 13.1852 5.69481 13.1385 5.62815 13.0785C5.50815 12.9519 5.43481 12.7785 5.43481 12.6052C5.43481 12.4319 5.50815 12.2585 5.62815 12.1319C5.69481 12.0719 5.76815 12.0252 5.84815 11.9919C6.00815 11.9252 6.19481 11.9252 6.35481 11.9919C6.43481 12.0252 6.50815 12.0719 6.57481 12.1319C6.69481 12.2585 6.76815 12.4319 6.76815 12.6052C6.76815 12.7785 6.69481 12.9519 6.57481 13.0785ZM6.71481 10.5252C6.68148 10.6052 6.63481 10.6785 6.57481 10.7452C6.50815 10.8052 6.43481 10.8519 6.35481 10.8852C6.27481 10.9185 6.18815 10.9385 6.10148 10.9385C6.01481 10.9385 5.92815 10.9185 5.84815 10.8852C5.76815 10.8519 5.69481 10.8052 5.62815 10.7452C5.56815 10.6785 5.52148 10.6052 5.48815 10.5252C5.45481 10.4452 5.43481 10.3585 5.43481 10.2719C5.43481 10.1852 5.45481 10.0985 5.48815 10.0185C5.52148 9.93853 5.56815 9.8652 5.62815 9.79854C5.69481 9.73854 5.76815 9.69187 5.84815 9.65854C6.00815 9.59187 6.19481 9.59187 6.35481 9.65854C6.43481 9.69187 6.50815 9.73854 6.57481 9.79854C6.63481 9.8652 6.68148 9.93853 6.71481 10.0185C6.74815 10.0985 6.76815 10.1852 6.76815 10.2719C6.76815 10.3585 6.74815 10.4452 6.71481 10.5252ZM8.90815 10.7452C8.84148 10.8052 8.76815 10.8519 8.68815 10.8852C8.60815 10.9185 8.52148 10.9385 8.43481 10.9385C8.34815 10.9385 8.26148 10.9185 8.18148 10.8852C8.10148 10.8519 8.02815 10.8052 7.96148 10.7452C7.84148 10.6185 7.76815 10.4452 7.76815 10.2719C7.76815 10.0985 7.84148 9.9252 7.96148 9.79854C8.02815 9.73854 8.10148 9.69187 8.18148 9.65854C8.34148 9.5852 8.52815 9.5852 8.68815 9.65854C8.76815 9.69187 8.84148 9.73854 8.90815 9.79854C9.02815 9.9252 9.10148 10.0985 9.10148 10.2719C9.10148 10.4452 9.02815 10.6185 8.90815 10.7452Z" fill="#798899"/>
</svg>
