<svg width="20" height="20" viewBox="0 0 20 20" fill="none" xmlns="http://www.w3.org/2000/svg">
<path d="M18.9583 14.583C18.9583 14.9247 18.675 15.208 18.3333 15.208H12.5V15.4163C12.5 16.6663 11.75 17.083 10.8333 17.083H5.83332C4.91666 17.083 4.16666 16.6663 4.16666 15.4163V15.208H1.66666C1.32499 15.208 1.04166 14.9247 1.04166 14.583C1.04166 14.2413 1.32499 13.958 1.66666 13.958H4.16666V13.7497C4.16666 12.4997 4.91666 12.083 5.83332 12.083H10.8333C11.75 12.083 12.5 12.4997 12.5 13.7497V13.958H18.3333C18.675 13.958 18.9583 14.2413 18.9583 14.583Z" fill="#515C6A"/>
<path d="M18.9583 5.41699C18.9583 5.75866 18.675 6.04199 18.3333 6.04199H15.8333V6.25033C15.8333 7.50033 15.0833 7.91699 14.1667 7.91699H9.16666C8.24999 7.91699 7.49999 7.50033 7.49999 6.25033V6.04199H1.66666C1.32499 6.04199 1.04166 5.75866 1.04166 5.41699C1.04166 5.07533 1.32499 4.79199 1.66666 4.79199H7.49999V4.58366C7.49999 3.33366 8.24999 2.91699 9.16666 2.91699H14.1667C15.0833 2.91699 15.8333 3.33366 15.8333 4.58366V4.79199H18.3333C18.675 4.79199 18.9583 5.07533 18.9583 5.41699Z" fill="#515C6A"/>
</svg>
