<svg width="20" height="20" viewBox="0 0 20 20" fill="none" xmlns="http://www.w3.org/2000/svg">
<path d="M18.3333 6.29134C18.3333 6.84134 17.8833 7.29134 17.3333 7.29134H2.66666C2.11666 7.29134 1.66666 6.84134 1.66666 6.29134V6.28301C1.66666 4.37467 3.20832 2.83301 5.11666 2.83301H14.875C16.7833 2.83301 18.3333 4.38301 18.3333 6.29134Z" fill="#515C6A"/>
<path d="M1.66666 9.54199V13.717C1.66666 15.6253 3.20832 17.167 5.11666 17.167H14.875C16.7833 17.167 18.3333 15.617 18.3333 13.7087V9.54199C18.3333 8.99199 17.8833 8.54199 17.3333 8.54199H2.66666C2.11666 8.54199 1.66666 8.99199 1.66666 9.54199ZM6.66666 14.3753H4.99999C4.65832 14.3753 4.37499 14.092 4.37499 13.7503C4.37499 13.4087 4.65832 13.1253 4.99999 13.1253H6.66666C7.00832 13.1253 7.29166 13.4087 7.29166 13.7503C7.29166 14.092 7.00832 14.3753 6.66666 14.3753ZM12.0833 14.3753H8.74999C8.40832 14.3753 8.12499 14.092 8.12499 13.7503C8.12499 13.4087 8.40832 13.1253 8.74999 13.1253H12.0833C12.425 13.1253 12.7083 13.4087 12.7083 13.7503C12.7083 14.092 12.425 14.3753 12.0833 14.3753Z" fill="#515C6A"/>
</svg>
