<svg width="18" height="19" viewBox="0 0 18 19" fill="none" xmlns="http://www.w3.org/2000/svg">
<path d="M15.9525 7.55734C15.735 7.21234 15.5025 6.88984 15.2625 6.58984C14.985 6.23734 14.46 6.20734 14.145 6.52234L11.895 8.77234C12.06 9.26734 12.09 9.83734 11.94 10.4298C11.6775 11.4873 10.8225 12.3423 9.76496 12.6048C9.17246 12.7548 8.60246 12.7248 8.10746 12.5598C8.10746 12.5598 7.03496 13.6323 6.26246 14.4048C5.88746 14.7798 6.00746 15.4398 6.50996 15.6348C7.31246 15.9423 8.14496 16.0998 8.99996 16.0998C10.335 16.0998 11.6325 15.7098 12.8175 14.9823C14.025 14.2323 15.1125 13.1298 15.99 11.7273C16.7025 10.5948 16.665 8.68984 15.9525 7.55734Z" fill="#798899"/>
<path d="M10.515 8.15734L7.48498 11.1873C7.10248 10.7973 6.85498 10.2573 6.85498 9.67234C6.85498 8.49484 7.81498 7.52734 8.99998 7.52734C9.58498 7.52734 10.125 7.77484 10.515 8.15734Z" fill="#798899"/>
<path d="M13.6875 4.98487L11.145 7.52737C10.5975 6.97237 9.84 6.64237 9 6.64237C7.32 6.64237 5.97 7.99987 5.97 9.67237C5.97 10.5124 6.3075 11.2699 6.855 11.8174L4.32 14.3599H4.3125C3.48 13.6849 2.715 12.8224 2.0625 11.8024C1.3125 10.6249 1.3125 8.71237 2.0625 7.53487C2.9325 6.16987 3.9975 5.09737 5.1825 4.36237C6.3675 3.64237 7.665 3.24487 9 3.24487C10.6725 3.24487 12.2925 3.85987 13.6875 4.98487Z" fill="#798899"/>
<path d="M11.1451 9.67242C11.1451 10.8499 10.1851 11.8174 9.00006 11.8174C8.95506 11.8174 8.91756 11.8174 8.87256 11.8024L11.1301 9.54492C11.1451 9.58992 11.1451 9.62742 11.1451 9.67242Z" fill="#798899"/>
<path d="M16.3275 2.34478C16.1025 2.11978 15.735 2.11978 15.51 2.34478L1.67247 16.1898C1.44747 16.4148 1.44747 16.7823 1.67247 17.0073C1.78497 17.1123 1.92747 17.1723 2.07747 17.1723C2.22747 17.1723 2.36997 17.1123 2.48247 16.9998L16.3275 3.15478C16.56 2.92978 16.56 2.56978 16.3275 2.34478Z" fill="#798899"/>
</svg>
