<svg width="20" height="20" viewBox="0 0 20 20" fill="none" xmlns="http://www.w3.org/2000/svg">
<path d="M15.625 6.66675V8.41675C15.2583 8.36675 14.8417 8.34175 14.375 8.33342V6.66675C14.375 4.04175 13.6333 2.29175 10 2.29175C6.36667 2.29175 5.625 4.04175 5.625 6.66675V8.33342C5.15833 8.34175 4.74167 8.36675 4.375 8.41675V6.66675C4.375 4.25008 4.95833 1.04175 10 1.04175C15.0417 1.04175 15.625 4.25008 15.625 6.66675Z" fill="#798899"/>
<path d="M15.625 8.41659C15.2583 8.36659 14.8417 8.34159 14.375 8.33325H5.62499C5.15832 8.34159 4.74166 8.36659 4.37499 8.41659C2.24999 8.67492 1.66666 9.71659 1.66666 12.4999V14.1666C1.66666 17.4999 2.49999 18.3333 5.83332 18.3333H14.1667C17.5 18.3333 18.3333 17.4999 18.3333 14.1666V12.4999C18.3333 9.71659 17.75 8.67492 15.625 8.41659ZM7.25832 13.9249C7.09999 14.0749 6.88332 14.1666 6.66666 14.1666C6.55832 14.1666 6.44999 14.1416 6.34999 14.0999C6.24166 14.0583 6.15832 13.9999 6.07499 13.9249C5.92499 13.7666 5.83332 13.5499 5.83332 13.3333C5.83332 13.2249 5.85832 13.1166 5.89999 13.0166C5.94166 12.9166 5.99999 12.8249 6.07499 12.7416C6.15832 12.6666 6.24166 12.6083 6.34999 12.5666C6.65832 12.4333 7.02499 12.5083 7.25832 12.7416C7.33332 12.8249 7.39166 12.9166 7.43332 13.0166C7.47499 13.1166 7.49999 13.2249 7.49999 13.3333C7.49999 13.5499 7.40832 13.7666 7.25832 13.9249ZM10.7667 13.6499C10.725 13.7499 10.6667 13.8416 10.5917 13.9249C10.4333 14.0749 10.2167 14.1666 9.99999 14.1666C9.77499 14.1666 9.56666 14.0749 9.40832 13.9249C9.33332 13.8416 9.27499 13.7499 9.23332 13.6499C9.19166 13.5499 9.16666 13.4416 9.16666 13.3333C9.16666 13.1083 9.25832 12.8999 9.40832 12.7416C9.71666 12.4333 10.275 12.4333 10.5917 12.7416C10.7417 12.8999 10.8333 13.1083 10.8333 13.3333C10.8333 13.4416 10.8083 13.5499 10.7667 13.6499ZM13.925 13.9249C13.7667 14.0749 13.55 14.1666 13.3333 14.1666C13.1167 14.1666 12.9 14.0749 12.7417 13.9249C12.5917 13.7666 12.5 13.5583 12.5 13.3333C12.5 13.1083 12.5917 12.8999 12.7417 12.7416C13.0583 12.4333 13.6167 12.4333 13.925 12.7416C13.9583 12.7833 13.9917 12.8249 14.025 12.8749C14.0583 12.9166 14.0833 12.9666 14.1 13.0166C14.125 13.0666 14.1417 13.1166 14.15 13.1666C14.1583 13.2249 14.1667 13.2833 14.1667 13.3333C14.1667 13.5499 14.075 13.7666 13.925 13.9249Z" fill="#798899"/>
</svg>
