<svg width="264" height="352" viewBox="0 0 264 352" fill="none" xmlns="http://www.w3.org/2000/svg">
<path fill-rule="evenodd" clip-rule="evenodd" d="M130.922 316.858L125.107 311.891C123.94 310.664 122.763 309.404 121.573 308.129L121.573 308.128L121.572 308.128L121.572 308.128C118.957 305.327 116.274 302.453 113.476 299.694C92.0367 278.526 71.7224 256.363 53.5941 232.262C41.3778 216.02 30.6097 198.902 22.4286 180.234C13.2238 159.214 8.51069 137.29 10.383 114.329C12.7811 84.865 24.6514 59.4687 45.021 38.1306C63.652 18.6049 86.2721 6.1858 112.932 1.57417C123.294 -0.21976 133.781 -0.307381 144.305 0.813247C169.77 3.52028 191.759 13.9749 210.685 30.8304C231.29 49.1755 244.733 71.9662 250.493 99.0273C253.19 111.7 253.596 124.534 252.259 137.475C249.828 161.012 240.965 182.235 229.238 202.42C214.121 228.439 195.328 251.719 174.848 273.633C166.451 282.62 157.808 291.376 149.18 300.115L149.172 300.124L149.171 300.124L149.171 300.125L149.17 300.125L149.169 300.126L149.169 300.126L149.168 300.127L149.168 300.127L149.167 300.128L149.167 300.128L149.166 300.129L149.166 300.13L149.165 300.13C145.265 304.081 141.368 308.029 137.498 311.993L130.922 316.867V316.858ZM95.4908 193.746C80.8857 186.778 70.5049 175.691 62.8911 161.829C61.5261 159.348 60.3178 156.756 59.3033 154.113C58.3302 151.591 59.4001 148.865 61.4016 147.929C63.7858 146.813 66.4329 147.671 67.927 150.138C68.4188 150.947 68.8385 151.8 69.2583 152.652L69.2583 152.653L69.2585 152.653C69.4489 153.04 69.6392 153.426 69.8363 153.809C79.0872 171.78 93.3833 183.628 112.927 188.871C122.985 191.569 133.237 191.611 143.516 190.093C147.579 189.494 150.226 191.26 151.697 195.12C152.348 196.826 153.09 198.542 154.072 200.068C160.907 210.67 161.7 221.891 157.347 233.516C152.62 246.139 143.669 254.951 131.798 261.006C128.413 262.736 126.269 262.551 124.95 260.232C123.626 257.907 124.692 255.703 128.183 253.964C134.556 250.796 139.998 246.448 144.213 240.766C152.26 229.929 156.235 215.171 144.586 201.249C143.515 199.969 142.411 200.202 141.319 200.432C140.935 200.513 140.552 200.593 140.173 200.608C139.827 200.622 139.352 201.991 139.255 202.775C138.983 204.929 137.913 206.4 135.824 206.87C133.68 207.355 132.084 206.317 131.07 204.463C130.719 203.82 130.475 203.12 130.232 202.426L130.232 202.426L130.232 202.426L130.232 202.425L130.232 202.425L130.232 202.425L130.232 202.425C130.123 202.114 130.015 201.805 129.898 201.503C125.471 200.992 122.747 202.825 121.726 207C121.708 207.073 121.699 207.149 121.69 207.226C121.68 207.302 121.671 207.378 121.653 207.452C119.873 214.41 117.272 221.01 111.341 225.483C98.7651 234.978 85.0962 235.449 70.9246 229.638C68.9031 228.809 67.0067 227.671 65.1101 226.533L65.1093 226.533L65.1087 226.532L65.108 226.532L65.1074 226.531L65.1069 226.531L65.1064 226.531L65.1059 226.531L65.1055 226.53L65.105 226.53L65.1045 226.53L65.104 226.529L65.1035 226.529L65.1031 226.529C64.2285 226.004 63.3539 225.479 62.4669 224.985C65.6627 229.228 69.1168 233.208 72.6309 237.132C72.9814 237.524 73.7008 237.718 74.268 237.759C75.7423 237.866 77.2169 237.992 78.6917 238.117C82.5637 238.446 86.4367 238.776 90.3073 238.769C103.81 238.737 122.432 229.887 124.802 214.032C125.162 211.625 127.196 210.647 129.271 211.053C131.24 211.436 132.467 213.188 132.356 215.526C132.324 216.209 132.209 216.901 132.043 217.565C130.05 225.525 125.794 232.018 119.259 236.961C110.746 243.395 100.928 246.028 90.4457 246.531C88.2606 246.637 86.0714 246.61 83.7413 246.581H83.7411H83.741H83.7409H83.7407H83.7406H83.7404H83.7403H83.7401H83.74H83.7398H83.7396H83.7394H83.7392C82.6226 246.568 81.4735 246.554 80.277 246.554C82.2738 250.031 84.2015 252.18 87.8862 251.58C88.7809 251.433 89.7401 251.497 90.644 251.631C93.6092 252.069 94.9651 254.412 93.9182 257.179C93.1296 259.259 93.4617 259.983 95.5922 260.315C97.174 260.564 98.8158 260.808 100.393 260.661C104.087 260.323 107.767 259.853 111.448 259.382C112.096 259.299 112.745 259.216 113.393 259.134C115.579 258.853 117.493 259.941 118.074 261.892C118.687 263.963 117.765 265.752 115.542 266.61C114.763 266.909 113.928 267.117 113.098 267.218C109.838 267.628 106.572 268.015 103.274 268.406L103.271 268.407L103.26 268.408C102.15 268.539 101.036 268.671 99.918 268.805C101.601 271.705 103.593 273.343 107.149 273.107C119.079 272.333 130.281 269.28 140.445 262.934C149.53 257.262 157.231 250.275 160.745 239.678C160.935 239.11 161.207 238.35 161.663 238.128C161.862 238.031 162.069 237.924 162.279 237.815C163.364 237.254 164.566 236.632 165.477 236.883C166.57 237.183 167.654 238.686 168.087 239.894C168.452 240.918 168.069 242.329 167.7 243.473C166.1 248.431 163.471 252.83 160.054 256.741C150.01 268.238 137.286 275.201 122.57 278.72C120.22 279.282 117.836 279.707 115.436 280.136L115.432 280.136C114.31 280.337 113.184 280.538 112.056 280.754C113.582 284.226 114.482 284.987 117.825 284.673L117.933 284.663H117.933C121.62 284.321 125.372 283.972 128.925 282.999C147.833 277.825 162.207 266.439 172.869 250.197C175.507 246.175 178.237 245.567 181.29 248.689C185.076 246.152 186.156 243.519 185.123 239.014C184.643 236.915 184.164 234.816 183.685 232.717L183.681 232.702L183.681 232.7C181.485 223.071 179.288 213.443 176.965 203.845C175.899 199.432 177.209 196.139 180.419 193.142C189.222 184.919 196.583 175.53 202.734 165.163C212.668 148.423 216.551 130.4 214.494 111.073C214.204 108.347 215.435 106.291 217.616 105.982C220.079 105.631 221.877 107.075 222.186 109.966C223.201 119.471 223.127 128.961 221.435 138.392C218.58 154.293 211.427 168.289 201.877 181.078C197.622 186.773 192.825 192.083 188.05 197.369L188.05 197.369L187.424 198.062C185.21 200.511 184.657 202.886 185.533 206.017C186.626 209.926 187.589 213.872 188.551 217.82L188.551 217.82L188.552 217.821L188.552 217.822L188.552 217.823L188.552 217.824L188.552 217.824L188.553 217.825L188.553 217.826L188.553 217.827L188.553 217.827L188.553 217.828L188.553 217.829C189.023 219.756 189.493 221.683 189.979 223.606C190.619 226.141 191.284 228.672 191.993 231.365L191.993 231.366L191.994 231.37L192.007 231.421L192.018 231.462C192.307 232.56 192.603 233.685 192.907 234.849C193.546 234.005 194.191 233.197 194.823 232.406C196.88 229.828 198.797 227.425 199.926 224.528C199.82 224.455 199.713 224.382 199.606 224.31C199.499 224.237 199.391 224.164 199.285 224.09C198.427 224.777 197.574 225.46 196.412 226.387C194.35 219.386 192.699 212.695 192.391 205.796C192.308 203.914 193.188 201.613 194.383 200.11C195.764 198.373 197.163 196.65 198.562 194.927C204.075 188.138 209.586 181.352 213.996 173.727C215.384 171.324 217.187 170.886 218.995 171.85C220.983 172.91 221.78 175.253 220.572 177.591C218.995 180.649 217.372 183.738 215.333 186.496C212.948 189.725 210.441 192.864 207.934 196.003C206.277 198.078 204.619 200.153 202.997 202.254C202.859 202.433 202.711 202.618 202.56 202.808L202.56 202.808C201.611 203.998 200.525 205.362 200.608 206.543C200.857 210.003 201.415 213.441 202.009 217.105C202.24 218.529 202.476 219.987 202.702 221.494C203.058 220.97 203.416 220.464 203.766 219.971L203.766 219.97C205.827 217.063 207.602 214.559 206.853 210.984C206.009 206.958 207.337 203.412 209.781 200.234C210.464 199.348 211.166 198.474 211.868 197.601C213.284 195.838 214.699 194.076 215.961 192.21C217.346 190.163 218.752 188.127 220.158 186.091L220.16 186.088C224.424 179.915 228.691 173.738 232.373 167.233C238.355 156.673 240.518 144.839 241.546 132.817C242.634 120.084 241.67 107.54 238.286 95.2089C237.767 93.315 237.149 91.4472 236.513 89.5252L236.512 89.5239C236.221 88.6429 235.925 87.7504 235.634 86.8387C234.368 87.4141 233.13 87.9811 231.911 88.5394L231.911 88.5397L231.91 88.5401C228.781 89.9731 225.777 91.3492 222.744 92.6632C221.384 93.2535 220.526 93.9453 220.166 95.5132C219.738 97.3809 218.289 98.4324 216.334 98.6584C214.305 98.8936 212.931 97.8882 212.022 96.2234C211.582 95.4137 211.275 94.5286 210.968 93.6461L210.967 93.6438L210.967 93.6422C210.895 93.4353 210.823 93.2285 210.749 93.0229C204.999 76.8592 195.176 63.7298 181.406 53.5197C181.198 53.3658 180.987 53.2137 180.775 53.0611L180.775 53.0608C179.863 52.4036 178.94 51.7385 178.233 50.9002C176.895 49.3092 176.932 47.4277 178.214 45.8182C179.45 44.2641 181.175 43.969 182.978 44.8221C183.738 45.183 184.436 45.6807 185.128 46.1749L185.307 46.3024C198.482 55.6779 208.324 67.825 215.26 82.3839C215.618 83.136 215.989 83.8822 216.395 84.6958L216.396 84.6982L216.398 84.7019L216.41 84.7259C216.616 85.1403 216.832 85.5723 217.058 86.0317C218.936 85.155 220.788 84.2896 222.627 83.4302C225.906 81.8982 229.144 80.3851 232.415 78.8606C232.23 78.4219 232.067 78.0177 231.915 77.6391L231.914 77.6374C231.604 76.8665 231.336 76.2017 231.008 75.5679C217.593 49.6136 197.994 30.1617 170.817 18.877C141.197 6.5778 112.047 8.46857 83.685 22.8523C62.3239 33.685 46.3446 50.2777 34.6587 71.0393C21.8798 93.747 18.5963 118.087 22.7699 143.59C24.7667 155.778 29.1109 167.233 34.0407 178.486C34.2252 178.901 34.4927 179.284 34.4465 179.201C34.9253 178.555 35.388 177.893 35.8509 177.231L35.851 177.231C36.8951 175.738 37.9402 174.244 39.1735 172.924C40.4601 171.549 41.9223 170.339 43.3847 169.128L43.3856 169.127L43.3861 169.127L43.3864 169.126C44.0568 168.572 44.7272 168.017 45.3807 167.446C49.2176 164.098 49.213 163.65 47.3822 158.992C45.5329 154.289 43.8727 149.506 42.2863 144.706C41.5346 142.432 42.5446 140.361 44.3523 139.688C46.4967 138.89 48.5858 139.813 49.6696 142.082C49.8364 142.431 49.9576 142.802 50.0789 143.174C50.1722 143.46 50.2655 143.746 50.3797 144.023C51.0583 145.661 51.7299 147.303 52.4014 148.944C54.1077 153.114 55.8138 157.284 57.6339 161.404C59.2894 165.149 59.271 166.2 56.1996 169.037C54.6817 170.437 53.138 171.811 51.5943 173.184C49.8693 174.719 48.1443 176.254 46.4552 177.826C42.0188 181.958 40.6676 191.159 43.6329 196.527C45.5052 194.53 46.9764 193.926 48.8026 194.53C50.9285 195.231 51.8416 196.808 52.2429 198.975C52.5149 200.428 53.1237 201.954 53.9999 203.14L54.4932 203.807C57.0131 207.218 59.5462 210.647 62.4207 213.746C69.2321 221.093 77.6022 225.358 87.817 225.363C100.462 225.368 111.286 219.529 113.767 204.694C114.472 200.479 114.315 200.105 110.336 198.92C110.058 198.838 109.776 198.766 109.494 198.694L109.493 198.693L109.493 198.693C108.803 198.516 108.112 198.339 107.49 198.025C105.549 197.043 104.396 197.767 103.063 199.307C98.0226 205.118 90.6025 206.898 83.4267 204.182C76.9843 201.742 72.594 196.803 68.4389 191.638C66.8248 189.637 66.9955 187.442 68.5819 186.063C70.1498 184.698 72.451 184.776 74.2081 186.422C74.9302 187.1 75.5919 187.843 76.254 188.587L76.2542 188.587C76.8183 189.221 77.3826 189.854 77.985 190.448C80.7797 193.192 83.602 195.918 87.5634 196.974C90.8838 197.859 93.8537 196.72 95.5 193.732L95.4908 193.746ZM131.116 300.782C136.783 295.086 142.207 289.64 146.814 285.015C140.053 288.446 131.591 290.479 122.487 292.412C123.841 293.724 125.128 294.973 126.357 296.166L126.537 296.34L126.776 296.572L126.872 296.665C128.366 298.115 129.775 299.482 131.116 300.782ZM210.441 123.068C208.748 152.578 196.541 176.198 170.905 192.219L170.849 192.254C167.686 194.23 167.675 194.237 168.959 197.735C169.197 198.384 169.458 199.026 169.718 199.669L169.718 199.669L169.718 199.669L169.718 199.669L169.718 199.67L169.719 199.67L169.719 199.67L169.719 199.67L169.719 199.671L169.719 199.671L169.719 199.671L169.719 199.672L169.719 199.672L169.72 199.673C170.093 200.594 170.466 201.515 170.776 202.457C171.555 204.832 170.744 206.926 168.848 207.737C166.833 208.604 164.555 207.765 163.512 205.482C161.636 201.369 159.8 197.223 158.191 192.994C156.821 189.402 158.011 186.759 161.751 184.891C172.427 179.556 181.11 171.97 187.825 162.124C194.761 151.95 198.875 140.703 199.589 128.417C201.19 100.881 190.61 79.0589 167.469 64.0434C139.767 46.0627 103.469 51.3476 81.1117 75.8723C67.6042 90.6849 61.8581 108.172 62.8174 128.016C62.8873 129.454 63.0708 130.885 63.2544 132.317C63.4217 133.622 63.5891 134.928 63.6705 136.239C63.8365 138.923 62.2824 140.675 59.5984 141.201C57.4632 141.616 55.3557 140.518 54.5856 138.134C53.8616 135.897 53.4096 133.532 53.1514 131.189C51.1868 113.194 54.9361 96.4356 64.2101 80.9082C64.7299 80.0383 65.2909 79.1912 65.8519 78.3442C66.2664 77.7185 66.6808 77.0928 67.0785 76.458C68.0008 74.9869 68.0331 73.6172 66.6173 72.3628L66.3967 72.1667L66.1698 71.9653C64.7714 70.7239 63.3679 69.4781 62.0887 68.1155C59.7368 65.6068 60.53 61.8806 63.6198 61.1104C64.3392 60.9323 65.1663 61.1511 65.9817 61.3667L65.9818 61.3668C66.285 61.4469 66.5865 61.5267 66.8802 61.5854C67.1297 61.6353 67.3642 61.8352 67.5803 62.0194C67.6038 62.0395 67.6272 62.0594 67.6504 62.0789C72.0084 65.7082 74.3372 66.7505 81.0748 61.401C91.4649 53.1507 102.902 47.2248 115.971 44.61C130.29 41.7462 144.397 42.4564 158.075 47.6537C186.801 58.574 203.251 79.7922 209.122 109.574C209.701 112.522 209.904 115.545 210.112 118.642C210.21 120.104 210.309 121.582 210.45 123.077L210.441 123.068ZM168.212 31.0979C171.191 32.1125 173.926 30.397 173.833 26.8921L173.829 26.8967C173.736 26.7729 173.628 26.6065 173.504 26.4141L173.503 26.4131L173.503 26.413L173.503 26.4124C173.135 25.8453 172.621 25.0535 171.933 24.4618C171.09 23.7342 169.997 23.2639 168.943 22.8106L168.719 22.714C159.413 18.7018 149.664 16.4191 139.587 15.7366C121.477 14.5099 104.211 17.904 87.8263 25.753C74.6324 32.071 63.1263 40.5887 53.7555 51.8733C51.3851 54.7326 51.3897 57.1214 53.5065 58.9338C55.3972 60.5524 57.5462 60.0544 59.9535 57.186C65.5198 50.5498 71.9023 44.7991 79.1195 40.0629C102.985 24.3972 128.625 18.8171 156.526 26.9474C158.944 27.6511 161.307 28.5438 163.67 29.4368L163.67 29.4368C165.179 30.0068 166.688 30.5769 168.212 31.0979ZM25.4724 124.678C25.6755 111.91 26.9668 100.912 30.5036 90.2559C30.8172 89.3105 31.14 88.3605 31.555 87.4612C32.6849 85.0309 34.6126 84.0578 36.697 84.8003C38.9659 85.6073 39.7684 87.5396 39.0028 90.2697C38.6689 91.4648 38.3249 92.6578 37.9809 93.8509C37.0943 96.9253 36.2077 100 35.4934 103.113C33.1138 113.471 33.2106 123.939 34.4143 134.44C35.4519 143.47 37.8499 152.167 41.1334 160.588C42.4339 163.922 41.8436 166.597 39.5332 168.852C38.9844 169.387 37.066 168.76 35.913 168.322C35.3504 168.11 34.9723 167.141 34.7186 166.436C30.7941 155.621 27.1279 144.738 26.0903 133.176C25.8767 130.784 25.7193 128.385 25.5997 126.563C25.5515 125.828 25.5095 125.187 25.4724 124.678ZM25.4724 124.678L25.4723 124.682V124.677L25.4724 124.678ZM132.024 29.0686C131.532 29.0733 131.04 29.0781 130.549 29.0781C115.339 29.8943 101.029 33.7681 87.9277 41.5387C82.8868 44.5274 78.1419 48.0473 73.4223 51.5484L73.4223 51.5485L73.4221 51.5485L73.0091 51.8549C70.3989 53.7872 70.3067 56.628 72.4326 58.2605C74.162 59.5933 75.9283 59.584 77.7176 58.2605C78.2681 57.8525 78.818 57.4434 79.3678 57.0342C81.8946 55.1539 84.4219 53.2732 87.0239 51.5044C95.8598 45.5093 105.374 40.8654 115.907 38.947C120.399 38.128 124.982 37.7966 129.563 37.4653C131.561 37.3209 133.558 37.1764 135.548 36.9916C138.319 36.7334 140.09 35.1792 140.044 33.0072C139.998 30.9642 137.927 29.1933 135.377 29.0919C134.259 29.047 133.142 29.0578 132.024 29.0686ZM237.165 122.588C237.137 136.317 234.107 149.359 228.965 161.981C228.62 162.829 228.218 163.664 227.762 164.462C226.489 166.694 224.464 167.561 222.638 166.703C220.535 165.721 219.881 163.807 220.743 161.257C221.309 159.589 221.913 157.932 222.517 156.274L222.517 156.273C223.855 152.598 225.194 148.922 226.125 145.144C229.523 131.35 229.888 117.414 226.955 103.45C226.812 102.777 226.697 102.094 226.59 101.411C226.194 98.8197 227.13 97.178 229.316 96.5831C231.345 96.0343 233.425 97.0857 234.112 99.4331C234.924 102.209 235.592 105.073 235.929 107.942C236.328 111.337 236.577 114.748 236.825 118.159L236.825 118.16V118.16V118.16V118.161V118.161V118.161V118.161V118.161V118.162V118.162C236.933 119.638 237.041 121.114 237.16 122.588H237.165ZM127.966 247.135C138.647 240.056 144.789 230.187 145.698 218.197L145.702 218.192C145.767 214.046 144.702 212.248 142.539 211.92C139.929 211.519 138.222 213.045 137.946 216.338C136.94 228.245 130.701 236.777 120.408 242.122C117.009 243.889 113.316 245.08 109.62 246.272C107.623 246.917 105.625 247.561 103.672 248.297C102.547 248.721 101.154 249.5 100.748 250.478C100.305 251.548 100.508 253.213 101.057 254.301C102.016 256.215 104.059 255.975 105.779 255.615C113.624 253.983 121.228 251.599 127.966 247.135ZM39.7546 121.071C39.607 104.501 44.0111 89.1352 52.1045 74.7654C53.9353 71.5142 56.338 70.3244 58.4824 71.5326C60.8344 72.8515 61.1479 75.3972 59.2111 78.8467C54.1152 87.9454 50.0385 97.4546 48.7934 107.863C48.2895 112.082 48.1892 116.347 48.0888 120.613L48.0888 120.613C48.0413 122.633 47.9937 124.654 47.9033 126.669C47.8962 126.824 47.8909 126.979 47.8855 127.136C47.8595 127.895 47.833 128.667 47.6036 129.367C46.9164 131.461 45.3346 132.434 43.1672 132.199C40.9951 131.964 39.939 130.419 39.7914 128.436C39.6661 126.732 39.6953 125.019 39.7245 123.307C39.7372 122.563 39.7499 121.819 39.7499 121.075L39.7546 121.071ZM63.3892 206.755C70.0069 214.258 78.1095 218.879 89.1867 219.41L89.1913 219.414C89.5912 219.355 90.059 219.297 90.5742 219.234L90.5749 219.234L90.5788 219.233L90.5811 219.233L90.5822 219.233C91.9071 219.07 93.5439 218.869 95.1449 218.501C98.5345 217.722 101.79 216.527 104.221 213.871C105.862 212.077 105.941 210.255 104.673 208.669C103.404 207.083 101.629 206.801 99.5029 207.904C99.055 208.135 98.6227 208.399 98.1909 208.664L98.1907 208.664C97.5734 209.041 96.9572 209.418 96.2978 209.697C88.0292 213.198 80.5906 210.878 73.9544 205.791C71.7 204.065 69.8262 201.839 67.9541 199.616L67.9538 199.615L67.9537 199.615L67.9535 199.615L67.9534 199.615L67.9532 199.615L67.9531 199.614C67.1947 198.714 66.4365 197.813 65.6535 196.946C63.6613 194.742 61.6506 194.216 59.8474 195.549C57.9106 196.979 57.7169 199.109 59.4601 201.659C60.6683 203.426 61.9734 205.15 63.3892 206.755ZM183.499 30.8258C183.737 30.9315 184.027 31.0375 184.346 31.1542C185.142 31.4453 186.121 31.8033 186.93 32.3892C192.944 36.7472 198.893 41.1974 204.823 45.6753C205.598 46.261 206.189 47.128 206.742 47.9489C207.909 49.669 207.982 51.3891 206.405 52.9433C204.902 54.4236 202.799 54.5666 200.968 53.1277C199.884 52.2762 198.836 51.3757 197.789 50.4753L197.789 50.4751C196.392 49.2738 194.995 48.073 193.511 46.9896C190.253 44.6077 186.907 42.3491 183.559 40.0897L183.555 40.087L183.554 40.0866L183.554 40.0861L183.553 40.0857L183.552 40.0853C182.709 39.5159 181.865 38.9466 181.023 38.3751C179.293 37.2037 178.537 35.6173 179.114 33.6343C179.635 31.8358 180.995 30.9089 183.495 30.8305L183.499 30.8258ZM166.763 216.742L166.763 216.742C166.502 217.109 166.24 217.476 165.966 217.786L166.159 217.966L166.39 218.183C166.406 218.328 166.415 218.476 166.425 218.623C166.444 218.938 166.464 219.253 166.552 219.548C166.958 220.886 167.363 222.226 167.767 223.566L167.773 223.583L167.773 223.584L167.773 223.584L167.773 223.584L167.773 223.584C169.183 228.253 170.593 232.925 172.104 237.561C172.856 239.88 174.977 240.807 177.048 240.093C179.127 239.378 180.207 237.418 179.524 235.126C177.827 229.403 176.038 223.703 174.235 218.012C173.985 217.228 173.635 216.14 173.031 215.872C171.67 215.273 170.01 214.609 168.687 214.913C167.945 215.083 167.354 215.912 166.763 216.742ZM151.582 31.808C152.051 31.9475 152.591 32.1001 153.18 32.2667C154.657 32.684 156.445 33.1892 158.195 33.7957C160.671 34.6528 163.118 35.589 165.564 36.5247L165.565 36.525C166.409 36.8477 167.252 37.1703 168.096 37.4896C168.525 37.651 168.936 37.8724 169.337 38.0891C171.675 39.3481 172.667 41.4371 171.841 43.351C171.006 45.2925 168.779 46.1871 166.358 45.3248C164.712 44.7396 163.088 44.0977 161.463 43.4559L161.463 43.4558L161.463 43.4558L161.463 43.4557C159.811 42.8028 158.159 42.15 156.484 41.5571C155.185 41.0947 153.858 40.7128 152.53 40.3308L152.53 40.3308L152.53 40.3307L152.529 40.3307L152.529 40.3306L152.529 40.3305C151.354 39.9925 150.179 39.6544 149.023 39.2605C146.952 38.5595 146.27 36.95 146.638 34.8656C146.947 33.1039 148.714 31.7804 151.578 31.808H151.582ZM223.752 73.7719L223.752 73.7718L223.752 73.7713C223.989 73.4258 224.218 73.0923 224.451 72.8193L224.446 72.8239C224.302 72.3698 224.197 71.975 224.104 71.6271L224.104 71.6267C223.934 70.9855 223.805 70.5036 223.551 70.1031C221.31 66.5475 219.027 63.015 216.685 59.524C216.279 58.9199 215.587 58.4541 214.937 58.0805C213.304 57.1444 211.723 57.3012 210.274 58.5463C208.854 59.773 208.494 61.4055 209.421 62.8859C212.018 67.0271 214.683 71.1453 217.658 75.0145C218.317 75.8722 220.558 76.2135 221.725 75.8031C222.56 75.5097 223.18 74.6057 223.752 73.7719ZM53.9907 189.116L53.9891 189.114C54.48 188.864 54.9279 188.662 55.3358 188.479L55.336 188.479C56.1223 188.124 56.7598 187.837 57.2696 187.4C59.8844 185.15 62.4577 182.839 64.9249 180.432C66.8479 178.555 66.8433 176.328 65.1555 174.511C63.5783 172.809 61.4938 172.698 59.4324 174.478C57.1957 176.409 55.0457 178.436 52.8961 180.462L52.8957 180.462C52.4217 180.909 51.9477 181.356 51.4727 181.802C50.2184 182.982 49.7803 184.564 50.698 185.966C51.2525 186.817 52.0712 187.494 52.8986 188.178C53.2679 188.483 53.639 188.79 53.9891 189.114L53.9861 189.116H53.9907ZM37.6701 74.3643C36.4987 76.7946 38.3803 79.5109 41.3501 80.1888C41.7254 79.9113 42.1338 79.6563 42.5421 79.4013C43.4435 78.8383 44.3445 78.2756 44.8873 77.4725C46.5228 75.0574 47.9202 72.4742 49.3145 69.8968C49.5203 69.5164 49.726 69.1361 49.9324 68.7565C51.0992 66.6075 50.578 64.7444 48.6043 63.4624C46.8426 62.3141 44.5829 62.5262 43.3378 64.4354C41.2579 67.6267 39.321 70.9379 37.6701 74.3643Z" fill="#FF9C07"/>
<path d="M195.987 121.906C196.039 121.908 196.097 121.909 196.159 121.909H201.749C203.402 121.909 205.258 122.542 206.125 124.442L195.987 121.906ZM195.987 121.906L195.986 121.736C195.986 121.736 195.986 121.736 195.986 121.736C195.846 85.2564 166.629 55.5 130.745 55.5C94.7203 55.5 65.5 85.3765 65.5 122C65.5 158.624 94.7203 188.5 130.745 188.5C140.359 188.5 149.631 186.413 158.29 182.298C163.018 180.051 165.021 174.35 162.851 169.596L162.851 169.595C161.055 165.664 157.137 165.086 154.281 165.086C152.847 165.086 151.736 165.931 151.282 166.276L151.271 166.285C151.13 166.392 150.993 166.5 150.879 166.591L150.867 166.6C150.743 166.699 150.644 166.777 150.55 166.848C150.347 167.002 150.276 167.038 150.281 167.035C143.894 170.071 137.375 172.471 130.745 172.471C118.06 172.471 105.692 166.457 96.4586 157.038C87.227 147.621 81.3098 134.982 81.3098 121.994C81.3098 109.005 87.2271 96.3657 96.4587 86.948C105.692 77.5286 118.06 71.5141 130.745 71.5141C156.208 71.5141 179.153 95.6691 179.153 121.747C179.153 121.805 179.152 121.858 179.15 121.907C179.1 121.909 179.046 121.909 178.988 121.909H173.333C171.656 121.909 169.731 122.536 168.864 124.507L195.987 121.906ZM190.103 153.934L190.148 153.862L205.292 129.486C205.545 129.151 205.919 128.587 206.182 127.881C206.48 127.081 206.741 125.793 206.125 124.442L190.103 153.934ZM190.103 153.934L190.054 154.003M190.103 153.934L190.054 154.003M190.054 154.003L189.961 154.132L189.898 154.22M190.054 154.003L189.898 154.22M189.898 154.22L189.827 154.302M189.898 154.22L189.827 154.302M189.827 154.302C189.041 155.216 187.85 155.921 186.454 155.921C185.218 155.921 183.791 155.359 182.754 153.791L182.69 153.694M189.827 154.302L182.69 153.694M182.69 153.694L182.636 153.593M182.69 153.694L182.636 153.593M182.636 153.593L169.769 129.56M182.636 153.593L169.769 129.56M169.769 129.56C169.5 129.209 169.145 128.675 168.882 128.021C168.56 127.218 168.252 125.9 168.864 124.508L169.769 129.56Z" fill="#FF9C07" stroke="#002D4C" stroke-width="5"/>
<path fill-rule="evenodd" clip-rule="evenodd" d="M108.85 136.338C109.225 136.356 109.541 136.374 109.821 136.39C110.332 136.419 110.718 136.441 111.107 136.443C112.577 136.448 114.048 136.447 115.519 136.445C118.146 136.443 120.773 136.441 123.399 136.473C126.128 136.507 128.124 138.645 128.138 141.42C128.152 144.011 126.087 146.237 123.45 146.254C115.371 146.302 107.288 146.336 99.2078 146.254C95.4193 146.217 93.1215 141.298 95.1834 137.57C96.0724 135.966 97.2828 134.474 98.5992 133.178C103.32 128.516 108.109 123.923 112.898 119.33C113.541 118.713 114.184 118.097 114.827 117.48C117.255 115.149 117.932 113.244 116.974 111.106C115.921 108.754 113.165 107.151 110.621 107.408C108.088 107.665 105.889 109.681 105.226 112.361C104.535 115.139 104.344 115.291 101.444 115.372C100.876 115.389 100.305 115.403 99.7378 115.399C96.64 115.386 95.2483 114.076 95.3543 110.954C95.4808 107.283 97.1494 104.234 99.8506 101.785C104.781 97.3157 110.546 96.1451 116.8 98.2698C122.654 100.256 126.442 104.319 127.543 110.483C128.244 114.404 127.4 118.17 124.681 121.042C121.563 124.335 118.262 127.459 114.96 130.584C113.617 131.855 112.274 133.127 110.943 134.41C110.566 134.771 110.18 135.123 109.716 135.546C109.456 135.783 109.171 136.042 108.85 136.338ZM167.997 129.387C167.9 125.909 166.056 124.501 160.791 124.033H160.794V121.931C160.794 120.346 160.797 118.761 160.8 117.175C160.808 112.541 160.817 107.906 160.754 103.271C160.741 102.153 160.438 100.891 159.854 99.9544C157.549 96.2736 152.469 96.3611 149.694 100.086C145.892 105.181 142.116 110.297 138.339 115.413C137.096 117.097 135.853 118.78 134.609 120.463C134.254 120.943 133.894 121.42 133.533 121.896C132.542 123.206 131.551 124.516 130.672 125.898C128.001 130.098 131.031 135.021 135.577 134.688C138.608 134.464 141.658 134.515 144.708 134.566C146.024 134.588 147.339 134.61 148.653 134.61H150.702C150.702 135.41 150.697 136.185 150.692 136.945C150.681 138.649 150.67 140.27 150.719 141.891C150.783 143.922 152.083 145.484 154.011 146.07C157.287 147.067 160.636 144.75 160.771 141.315C160.829 139.816 160.815 138.314 160.8 136.823C160.794 136.164 160.788 135.507 160.788 134.853C166.056 134.216 168.085 132.634 167.997 129.387ZM150.46 114.836C150.521 114.867 150.581 114.898 150.642 114.93V124.06H143.015C144.457 122.209 145.876 120.388 147.286 118.581C148.287 117.297 149.283 116.02 150.279 114.742C150.339 114.774 150.4 114.805 150.46 114.836Z" fill="#FF9C07"/>
<path d="M100.332 157.661C102.35 157.661 103.986 156.025 103.986 154.007C103.986 151.989 102.35 150.353 100.332 150.353C98.3137 150.353 96.6776 151.989 96.6776 154.007C96.6776 156.025 98.3137 157.661 100.332 157.661Z" fill="#FF9C07"/>
<path d="M162.346 95.6475C164.364 95.6475 166 94.0115 166 91.9933C166 89.9752 164.364 88.3391 162.346 88.3391C160.328 88.3391 158.692 89.9752 158.692 91.9933C158.692 94.0115 160.328 95.6475 162.346 95.6475Z" fill="#FF9C07"/>
<path d="M97.7479 89.4092C96.3208 90.8363 96.3208 93.1499 97.7479 94.577C99.175 96.004 101.489 96.004 102.916 94.577C104.343 93.1499 104.343 90.8363 102.916 89.4092C101.489 87.9821 99.175 87.9821 97.7479 89.4092Z" fill="#FF9C07"/>
<path d="M159.762 151.423C158.335 152.85 158.335 155.164 159.762 156.591C161.189 158.018 163.503 158.018 164.93 156.591C166.357 155.164 166.357 152.85 164.93 151.423C163.503 149.996 161.189 149.996 159.762 151.423Z" fill="#FF9C07"/>
<path d="M131.339 90.1122C133.357 90.1122 134.993 88.4761 134.993 86.458V79.1496C134.993 77.1315 133.357 75.4954 131.339 75.4954C129.32 75.4954 127.684 77.1315 127.684 79.1496V86.458C127.684 88.4761 129.32 90.1122 131.339 90.1122Z" fill="#FF9C07"/>
<path d="M131.339 155.888C129.32 155.888 127.684 157.524 127.684 159.542V166.851C127.684 168.869 129.32 170.505 131.339 170.505C133.357 170.505 134.993 168.869 134.993 166.851V159.542C134.993 157.524 133.357 155.888 131.339 155.888Z" fill="#FF9C07"/>
<path d="M98.4509 123C98.4509 120.982 96.8148 119.346 94.7967 119.346H87.4883C85.4702 119.346 83.8341 120.982 83.8341 123C83.8341 125.018 85.4702 126.654 87.4883 126.654H94.7967C96.8148 126.654 98.4509 125.018 98.4509 123Z" fill="#FF9C07"/>
<path fill-rule="evenodd" clip-rule="evenodd" d="M87.0388 282.983C36.6119 287.952 0.601807 301.04 0.601807 316.404C0.601807 336.042 59.4308 351.961 132 351.961C204.569 351.961 263.398 336.042 263.398 316.404C263.398 300.858 226.527 287.642 175.158 282.81L169.202 289.229C198.844 293.011 219.358 301.171 219.358 310.629C219.358 323.687 180.246 334.273 132 334.273C83.7534 334.273 44.6418 323.687 44.6418 310.629C44.6418 301.4 64.1756 293.406 92.6627 289.511L87.0388 282.983Z" fill="#FF9C07"/>
</svg>
