<svg width="20" height="19" viewBox="0 0 20 19" fill="none" xmlns="http://www.w3.org/2000/svg">
<mask id="mask0_57_15039" style="mask-type:luminance" maskUnits="userSpaceOnUse" x="0" y="0" width="20" height="19">
<path fill-rule="evenodd" clip-rule="evenodd" d="M14.538 2.04736C14.8374 1.99797 15.1421 1.98879 15.444 2.02026C15.9891 2.10103 16.5015 2.33055 16.9249 2.68335C17.3482 3.03615 17.6663 3.49862 17.844 4.02026C17.9295 4.31277 17.975 4.61568 17.979 4.92041C18.004 5.37441 18.004 5.95733 18.004 6.78833V11.6084C18.004 12.4394 18.004 13.0223 17.979 13.4773C17.975 13.782 17.9296 14.0849 17.844 14.3774C17.6663 14.8991 17.3482 15.3616 16.9249 15.7144C16.5015 16.0672 15.9891 16.2967 15.444 16.3774C15.1422 16.4095 14.8374 16.4003 14.538 16.3503C14.086 16.2933 13.513 16.1893 12.695 16.0403L11.066 15.7402C10.4854 15.6349 9.96035 15.3289 9.58266 14.8755C9.20498 14.4221 8.99873 13.8503 9 13.2603C9 13.2383 9 13.2163 9 13.1943C9 12.9291 8.89464 12.6748 8.70711 12.4873C8.51957 12.2998 8.26522 12.1943 8 12.1943C7.73478 12.1943 7.48043 12.2998 7.29289 12.4873C7.10536 12.6748 7 12.9291 7 13.1943C7 13.2163 7 13.2383 7 13.2603C7.00023 14.3177 7.37147 15.3417 8.04906 16.1536C8.72664 16.9655 9.66761 17.514 10.708 17.7034L12.366 18.0034C13.148 18.1464 13.776 18.2602 14.288 18.3242C14.7684 18.3982 15.2567 18.4052 15.739 18.3452C16.6465 18.2096 17.4991 17.8271 18.2036 17.2393C18.9081 16.6514 19.4372 15.881 19.733 15.0125C19.8782 14.5487 19.9586 14.067 19.972 13.5813C20 13.0653 20 12.4273 20 11.6323V6.7544C20 5.95939 20 5.32142 19.972 4.80542C19.9586 4.31969 19.8782 3.83799 19.733 3.37427C19.4372 2.50573 18.9081 1.73534 18.2036 1.14746C17.4991 0.559581 16.6465 0.17687 15.739 0.0412602C15.2567 -0.0187476 14.7684 -0.0116844 14.288 0.0622563C13.776 0.127256 13.148 0.241301 12.366 0.383301L10.903 0.649414C9.84841 0.840148 8.88925 1.38172 8.18127 2.18628C7.47329 2.99084 7.05806 4.01101 7.003 5.0813C6.9999 5.11888 6.9989 5.15664 7 5.19434C7 5.20834 7 5.22233 7 5.23633C7 5.26633 7 5.29642 7 5.32642H7.009C7.04099 5.56661 7.15909 5.78688 7.34137 5.94653C7.52365 6.10619 7.75769 6.19428 8 6.19434C8.24231 6.19428 8.47635 6.10619 8.65863 5.94653C8.84091 5.78688 8.95901 5.56661 8.991 5.32642H9C9.00012 4.68187 9.22638 4.05784 9.63937 3.56299C10.0524 3.06814 10.6259 2.73383 11.26 2.61841L12.695 2.35742C13.513 2.20842 14.086 2.10436 14.538 2.04736ZM4.707 5.48731C4.51947 5.29983 4.26516 5.19458 4 5.19458C3.73484 5.19458 3.48053 5.29983 3.293 5.48731L0.292999 8.4873C0.105528 8.67483 0.000213623 8.92917 0.000213623 9.19434C0.000213623 9.4595 0.105528 9.71384 0.292999 9.90137L3.293 12.9014C3.48053 13.0888 3.73484 13.1941 4 13.1941C4.26516 13.1941 4.51947 13.0888 4.707 12.9014C4.89447 12.7138 4.99979 12.4595 4.99979 12.1943C4.99979 11.9292 4.89447 11.6748 4.707 11.4873L3.414 10.1943H10C10.2652 10.1943 10.5196 10.0889 10.7071 9.90137C10.8946 9.71383 11 9.45955 11 9.19434C11 8.92912 10.8946 8.67484 10.7071 8.4873C10.5196 8.29977 10.2652 8.19434 10 8.19434H3.414L4.707 6.90137C4.89447 6.71384 4.99979 6.4595 4.99979 6.19434C4.99979 5.92917 4.89447 5.67483 4.707 5.48731Z" fill="white"/>
</mask>
<g mask="url(#mask0_57_15039)">
<mask id="mask1_57_15039" style="mask-type:luminance" maskUnits="userSpaceOnUse" x="-2" y="-3" width="24" height="25">
<path d="M-2 21.1943H22V-2.80566H-2V21.1943Z" fill="white"/>
</mask>
<g mask="url(#mask1_57_15039)">
<path d="M-1.10001 -1.02637H21V19.4155H-1.10001V-1.02637Z" fill="#152B6F"/>
</g>
</g>
</svg>
