<svg width="25" height="25" viewBox="0 0 25 25" fill="none" xmlns="http://www.w3.org/2000/svg">
<path d="M17.6233 4.63999L17.5533 8.42997C17.5433 8.94997 17.8734 9.63999 18.2934 9.94999L20.7734 11.83C22.3634 13.03 22.1034 14.5 20.2034 15.1L16.9734 16.11C16.4334 16.28 15.8634 16.87 15.7234 17.42L14.9534 20.36C14.3434 22.68 12.8233 22.91 11.5633 20.87L9.80334 18.02C9.48334 17.5 8.72334 17.11 8.12334 17.14L4.78338 17.31C2.39338 17.43 1.71337 16.05 3.27337 14.23L5.25335 11.93C5.62335 11.5 5.79334 10.7 5.62334 10.16L4.61339 6.92997C4.02339 5.02997 5.08338 3.97999 6.97338 4.59999L9.92339 5.56999C10.4234 5.72999 11.1734 5.61998 11.5934 5.30998L14.6734 3.08998C16.3334 1.88998 17.6633 2.58999 17.6233 4.63999Z" stroke="#515C6A" stroke-width="1.5" stroke-linecap="round" stroke-linejoin="round"/>
<path d="M22.2433 22.4997L19.2133 19.4697" stroke="#515C6A" stroke-width="1.5" stroke-linecap="round" stroke-linejoin="round"/>
</svg>
