<svg width="12" height="16" viewBox="0 0 12 16" fill="none" xmlns="http://www.w3.org/2000/svg">
<path d="M9.18 0.5H2.82C0.75 0.5 0 1.25 0 3.3575V12.6425C0 14.75 0.75 15.5 2.82 15.5H9.1725C11.25 15.5 12 14.75 12 12.6425V3.3575C12 1.25 11.25 0.5 9.18 0.5ZM6 13.475C5.28 13.475 4.6875 12.8825 4.6875 12.1625C4.6875 11.4425 5.28 10.85 6 10.85C6.72 10.85 7.3125 11.4425 7.3125 12.1625C7.3125 12.8825 6.72 13.475 6 13.475ZM7.5 3.6875H4.5C4.1925 3.6875 3.9375 3.4325 3.9375 3.125C3.9375 2.8175 4.1925 2.5625 4.5 2.5625H7.5C7.8075 2.5625 8.0625 2.8175 8.0625 3.125C8.0625 3.4325 7.8075 3.6875 7.5 3.6875Z" fill="#798899"/>
</svg>
