<svg width="18" height="19" viewBox="0 0 18 19" fill="none" xmlns="http://www.w3.org/2000/svg">
<path d="M13.5 3.67236H11.8125V2.73486C11.8125 2.42736 11.5575 2.17236 11.25 2.17236C10.9425 2.17236 10.6875 2.42736 10.6875 2.73486V16.6099C10.6875 16.9174 10.9425 17.1724 11.25 17.1724C11.5575 17.1724 11.8125 16.9174 11.8125 16.6099V15.6724H13.5C15.1575 15.6724 16.5 14.3299 16.5 12.6724V6.67236C16.5 5.01486 15.1575 3.67236 13.5 3.67236Z" fill="#798899"/>
<path d="M4.875 3.67236C3.2175 3.67236 1.875 5.01486 1.875 6.67236V12.6724C1.875 14.3299 3.2175 15.6724 4.875 15.6724H8.625C9.0375 15.6724 9.375 15.3349 9.375 14.9224V4.42236C9.375 4.00986 9.0375 3.67236 8.625 3.67236H4.875ZM5.0025 9.95736C4.965 10.0474 4.9125 10.1299 4.845 10.2049C4.77 10.2724 4.6875 10.3249 4.5975 10.3624C4.5075 10.3999 4.41 10.4224 4.3125 10.4224C4.215 10.4224 4.1175 10.3999 4.0275 10.3624C3.9375 10.3249 3.855 10.2724 3.78 10.2049C3.7125 10.1299 3.66 10.0474 3.615 9.95736C3.5775 9.86736 3.5625 9.76986 3.5625 9.67236C3.5625 9.47736 3.645 9.28236 3.78 9.13986C3.8175 9.10986 3.855 9.07986 3.8925 9.04986C3.9375 9.01986 3.9825 8.99736 4.0275 8.98236C4.0725 8.95986 4.1175 8.94486 4.1625 8.93736C4.4175 8.88486 4.6725 8.96736 4.845 9.13986C4.98 9.28236 5.0625 9.47736 5.0625 9.67236C5.0625 9.76986 5.04 9.86736 5.0025 9.95736ZM7.6275 9.95736C7.59 10.0474 7.5375 10.1299 7.47 10.2049C7.395 10.2724 7.3125 10.3249 7.2225 10.3624C7.1325 10.3999 7.035 10.4224 6.9375 10.4224C6.84 10.4224 6.7425 10.3999 6.6525 10.3624C6.5625 10.3249 6.48 10.2724 6.405 10.2049C6.2625 10.0624 6.1875 9.87486 6.1875 9.67236C6.1875 9.57486 6.21 9.47736 6.2475 9.38736C6.285 9.28986 6.3375 9.21486 6.405 9.13986C6.6825 8.86236 7.185 8.86236 7.47 9.13986C7.605 9.28236 7.6875 9.47736 7.6875 9.67236C7.6875 9.76986 7.665 9.86736 7.6275 9.95736Z" fill="#798899"/>
</svg>
