<svg width="16" height="16" viewBox="0 0 16 16" fill="none"
    xmlns="http://www.w3.org/2000/svg">
    <path d="M14.0465 3.48683C12.9732 3.38016 11.8998 3.30016 10.8198 3.24016V3.2335L10.6732 2.36683C10.5732 1.7535 10.4265 0.833496 8.86649 0.833496H7.11982C5.56649 0.833496 5.41982 1.7135 5.31315 2.36016L5.17315 3.2135C4.55315 3.2535 3.93315 3.2935 3.31315 3.3535L1.95315 3.48683C1.67315 3.5135 1.47315 3.76016 1.49982 4.0335C1.52649 4.30683 1.76649 4.50683 2.04649 4.48016L3.40649 4.34683C6.89982 4.00016 10.4198 4.1335 13.9532 4.48683C13.9732 4.48683 13.9865 4.48683 14.0065 4.48683C14.2598 4.48683 14.4798 4.2935 14.5065 4.0335C14.5265 3.76016 14.3265 3.5135 14.0465 3.48683Z" fill="#515C6A"/>
    <path d="M12.8198 5.4265C12.6598 5.25984 12.4398 5.1665 12.2132 5.1665H3.78649C3.55982 5.1665 3.33316 5.25984 3.17982 5.4265C3.02649 5.59317 2.93982 5.81984 2.95316 6.05317L3.36649 12.8932C3.43982 13.9065 3.53316 15.1732 5.85982 15.1732H10.1398C12.4665 15.1732 12.5598 13.9132 12.6332 12.8932L13.0465 6.05984C13.0598 5.81984 12.9732 5.59317 12.8198 5.4265ZM9.10649 11.8332H6.88649C6.61316 11.8332 6.38649 11.6065 6.38649 11.3332C6.38649 11.0598 6.61316 10.8332 6.88649 10.8332H9.10649C9.37982 10.8332 9.60649 11.0598 9.60649 11.3332C9.60649 11.6065 9.37982 11.8332 9.10649 11.8332ZM9.66649 9.1665H6.33316C6.05982 9.1665 5.83316 8.93984 5.83316 8.6665C5.83316 8.39317 6.05982 8.1665 6.33316 8.1665H9.66649C9.93982 8.1665 10.1665 8.39317 10.1665 8.6665C10.1665 8.93984 9.93982 9.1665 9.66649 9.1665Z" fill="#515C6A"/>
</svg>
