<svg width="16" height="17" viewBox="0 0 16 17" fill="none" xmlns="http://www.w3.org/2000/svg">
<path d="M6 1.8335C4.25333 1.8335 2.83333 3.2535 2.83333 5.00016C2.83333 6.7135 4.17333 8.10016 5.92 8.16016C5.97333 8.1535 6.02666 8.1535 6.06666 8.16016C6.08 8.16016 6.08666 8.16016 6.1 8.16016C6.10666 8.16016 6.10666 8.16016 6.11333 8.16016C7.82 8.10016 9.16 6.7135 9.16666 5.00016C9.16666 3.2535 7.74666 1.8335 6 1.8335Z" fill="#252D36"/>
<path d="M9.38667 9.93342C7.52667 8.69342 4.49334 8.69342 2.62 9.93342C1.77334 10.5001 1.30667 11.2668 1.30667 12.0868C1.30667 12.9068 1.77334 13.6668 2.61334 14.2268C3.54667 14.8534 4.77334 15.1668 6 15.1668C7.22667 15.1668 8.45334 14.8534 9.38667 14.2268C10.2267 13.6601 10.6933 12.9001 10.6933 12.0734C10.6867 11.2534 10.2267 10.4934 9.38667 9.93342Z" fill="#252D36"/>
<path d="M13.3267 5.39356C13.4333 6.6869 12.5133 7.82023 11.24 7.97356C11.2333 7.97356 11.2333 7.97356 11.2267 7.97356H11.2067C11.1667 7.97356 11.1267 7.97356 11.0933 7.9869C10.4467 8.02023 9.85334 7.81356 9.40667 7.43356C10.0933 6.82023 10.4867 5.90023 10.4067 4.90023C10.36 4.36023 10.1733 3.8669 9.89334 3.4469C10.1467 3.32023 10.44 3.24023 10.74 3.21356C12.0467 3.10023 13.2133 4.07356 13.3267 5.39356Z" fill="#252D36"/>
<path d="M14.66 11.5599C14.6067 12.2066 14.1933 12.7666 13.5 13.1466C12.8333 13.5133 11.9933 13.6866 11.16 13.6666C11.64 13.2333 11.92 12.6933 11.9733 12.1199C12.04 11.2933 11.6467 10.4999 10.86 9.86661C10.4133 9.51327 9.89333 9.23327 9.32667 9.02661C10.8 8.59994 12.6533 8.88661 13.7933 9.80661C14.4067 10.2999 14.72 10.9199 14.66 11.5599Z" fill="#252D36"/>
</svg>
