<svg width="20" height="20" viewBox="0 0 20 20" fill="none" xmlns="http://www.w3.org/2000/svg">
<path d="M17.425 9.2666V5.60827C17.425 4.92493 16.9083 4.14993 16.2667 3.8916L11.625 1.9916C10.5833 1.5666 9.40835 1.5666 8.36668 1.9916L3.72501 3.8916C3.09168 4.14993 2.57501 4.92493 2.57501 5.60827V9.2666C2.57501 13.3416 5.53335 17.1583 9.57501 18.2749C9.85001 18.3499 10.15 18.3499 10.425 18.2749C14.4667 17.1583 17.425 13.3416 17.425 9.2666ZM10.625 10.7249V12.9166C10.625 13.2583 10.3417 13.5416 10 13.5416C9.65835 13.5416 9.37501 13.2583 9.37501 12.9166V10.7249C8.53335 10.4583 7.91668 9.67494 7.91668 8.74994C7.91668 7.59994 8.85001 6.6666 10 6.6666C11.15 6.6666 12.0833 7.59994 12.0833 8.74994C12.0833 9.68327 11.4667 10.4583 10.625 10.7249Z" fill="#515C6A"/>
</svg>
