<svg width="24" height="25" viewBox="0 0 24 25" fill="none" xmlns="http://www.w3.org/2000/svg">
<path d="M22 7.92188H16C15.59 7.92188 15.25 7.58187 15.25 7.17188C15.25 6.76188 15.59 6.42188 16 6.42188H22C22.41 6.42188 22.75 6.76188 22.75 7.17188C22.75 7.58187 22.41 7.92188 22 7.92188Z" fill="#515C6A"/>
<path d="M6 7.92188H2C1.59 7.92188 1.25 7.58187 1.25 7.17188C1.25 6.76188 1.59 6.42188 2 6.42188H6C6.41 6.42188 6.75 6.76188 6.75 7.17188C6.75 7.58187 6.41 7.92188 6 7.92188Z" fill="#515C6A"/>
<path d="M10 11.4219C7.66 11.4219 5.75 9.51188 5.75 7.17188C5.75 4.83188 7.66 2.92188 10 2.92188C12.34 2.92188 14.25 4.83188 14.25 7.17188C14.25 9.51188 12.34 11.4219 10 11.4219ZM10 4.42188C8.48 4.42188 7.25 5.65188 7.25 7.17188C7.25 8.69187 8.48 9.92188 10 9.92188C11.52 9.92188 12.75 8.69187 12.75 7.17188C12.75 5.65188 11.52 4.42188 10 4.42188Z" fill="#515C6A"/>
<path d="M22 18.9219H18C17.59 18.9219 17.25 18.5819 17.25 18.1719C17.25 17.7619 17.59 17.4219 18 17.4219H22C22.41 17.4219 22.75 17.7619 22.75 18.1719C22.75 18.5819 22.41 18.9219 22 18.9219Z" fill="#515C6A"/>
<path d="M8 18.9219H2C1.59 18.9219 1.25 18.5819 1.25 18.1719C1.25 17.7619 1.59 17.4219 2 17.4219H8C8.41 17.4219 8.75 17.7619 8.75 18.1719C8.75 18.5819 8.41 18.9219 8 18.9219Z" fill="#515C6A"/>
<path d="M14 22.4219C11.66 22.4219 9.75 20.5119 9.75 18.1719C9.75 15.8319 11.66 13.9219 14 13.9219C16.34 13.9219 18.25 15.8319 18.25 18.1719C18.25 20.5119 16.34 22.4219 14 22.4219ZM14 15.4219C12.48 15.4219 11.25 16.6519 11.25 18.1719C11.25 19.6919 12.48 20.9219 14 20.9219C15.52 20.9219 16.75 19.6919 16.75 18.1719C16.75 16.6519 15.52 15.4219 14 15.4219Z" fill="#515C6A"/>
</svg>
