<svg width="21" height="21" viewBox="0 0 21 21" fill="none" xmlns="http://www.w3.org/2000/svg">
<path d="M16.7583 5.74447L11.8083 2.88613C11 2.41947 10 2.41947 9.18333 2.88613L4.24167 5.74447C3.43333 6.21113 2.93333 7.0778 2.93333 8.01947V13.7195C2.93333 14.6528 3.43333 15.5195 4.24167 15.9945L9.19167 18.8528C10 19.3195 11 19.3195 11.8167 18.8528L16.7667 15.9945C17.575 15.5278 18.075 14.6611 18.075 13.7195V8.01947C18.0667 7.0778 17.5667 6.21947 16.7583 5.74447ZM10.5 6.98613C11.575 6.98613 12.4417 7.8528 12.4417 8.9278C12.4417 10.0028 11.575 10.8695 10.5 10.8695C9.425 10.8695 8.55833 10.0028 8.55833 8.9278C8.55833 7.86113 9.425 6.98613 10.5 6.98613ZM12.7333 14.7528H8.26667C7.59167 14.7528 7.2 14.0028 7.575 13.4445C8.14167 12.6028 9.24167 12.0361 10.5 12.0361C11.7583 12.0361 12.8583 12.6028 13.425 13.4445C13.8 13.9945 13.4 14.7528 12.7333 14.7528Z" fill="#515C6A"/>
</svg>
